# xmcd
#
# Track frame offsets: 
#        150
#        35726
#        74321
#        93223
#        121316
#        151947
#        166599
#        199588
#        210269
#        230121
#        263317
#        279376
#        298833
#        321474
#
# Disc length: 4434 seconds
#
# Revision: 0
# Processed by: cddbd v1.5.2PL0 Copyright (c) Steve Scherf et al.
# Submitted via: ExactAudioCopy v0.95b4
#
DISCID=c011500e
DTITLE=André Rieu - Ich liebe Strauß, ich liebe Wien! - Ich liebe Wien
DTITLE=und die Donau
DYEAR=2006
DGENRE=Classical
TTITLE0=An der schönen blauen Donau
TTITLE1=G'schichten aus dem Wienerwald
TTITLE2=Wien, du Stadt meiner Träume
TTITLE3=Dorfschwalben aus Österreich
TTITLE4=Morgenblätter
TTITLE5=Mein Herr Marquis
TTITLE6=Wiener Blut
TTITLE7=Heut kommen d'Engerl auf Urlaub nach Wean
TTITLE8=Mei Muatterl war a Weanerin
TTITLE9=Im weißen Rössl, Melodienreigen
TTITLE10=Komm mit mir ins Chambre Sépaée
TTITLE11=Draußen in Sievering blüht schon der Flieder
TTITLE12=O Madonna, auf uns sieh, "Nonnen-Chor"
TTITLE13=Radezky-Marsch
EXTD=
EXTT0=
EXTT1=
EXTT2=
EXTT3=
EXTT4=
EXTT5=
EXTT6=
EXTT7=
EXTT8=
EXTT9=
EXTT10=
EXTT11=
EXTT12=
EXTT13=
PLAYORDER=
